<svg width="41" height="43" viewBox="0 0 41 43" fill="none" xmlns="http://www.w3.org/2000/svg">
<path d="M29.2886 0.366182C27.0245 0.592878 23.8204 2.32444 22.2295 4.1766C21.3116 5.23772 20.772 6.25062 20.3047 7.77478L20.0711 8.53687L20.0822 9.34718C20.0934 9.79093 20.1212 10.2057 20.149 10.2733C20.2213 10.4324 20.3604 10.4565 21.3394 10.4614C22.1516 10.4662 22.2016 10.4614 22.897 10.2829C24.7549 9.81504 26.1178 9.11084 27.0857 8.11241C27.3194 7.86643 27.6698 7.53844 27.8534 7.37445C28.4653 6.85353 29.2496 5.69594 29.6835 4.69269C30.1174 3.68462 30.3121 2.7489 30.3677 1.41766L30.4011 0.563938L30.2565 0.438532C30.0952 0.298656 30.0062 0.293833 29.2886 0.366182Z" fill="#717171"/>
<path d="M28.7713 10.336C27.6699 10.3842 24.7049 11.098 22.5744 11.8215C21.2838 12.2605 21.2838 12.2605 21.0279 12.299C20.5829 12.3617 19.4926 12.0868 17.618 11.4308C16.6222 11.0884 15.5987 10.8279 14.0856 10.5289C13.4515 10.4083 12.4001 10.3938 11.944 10.5048C11.7604 10.5482 11.1819 10.6495 10.659 10.7266C9.53531 10.9003 8.90115 11.0691 8.05562 11.4308C5.50232 12.5113 3.76118 14.0644 2.38162 16.4953C1.76971 17.5661 1.31913 18.6127 0.985368 19.7269C0.490284 21.3813 0.479158 24.5551 0.963117 26.4796C1.01874 26.7159 1.06881 26.9957 1.06881 27.1066C1.06881 27.3381 1.11887 27.5117 1.58614 29.1083C2.02004 30.5842 1.97554 30.4636 2.80439 32.2675C3.967 34.7998 4.33414 35.3593 6.70943 38.2002C7.68291 39.3626 8.178 39.8932 8.89559 40.525C9.64656 41.1906 10.2529 41.5765 11.1096 41.9431C12.0775 42.3531 12.5002 42.4447 13.3903 42.4399C14.5307 42.4399 15.4485 42.2373 17.1952 41.6006C18.2966 41.2003 18.3689 41.181 20.3715 40.8241C20.9723 40.7131 21.5286 40.7228 22.3741 40.8434C22.6634 40.882 23.0973 40.9398 23.3309 40.9688C23.8037 41.0267 24.2821 41.1617 25.5171 41.591C27.0079 42.1119 28.0592 42.3434 29.1607 42.4013C30.7627 42.4881 32.3092 41.8707 33.9613 40.4961C35.6468 39.0829 37.2211 37.1487 38.812 34.5393C39.2404 33.8351 39.9246 32.3929 40.0414 31.9588C40.0915 31.7852 40.1749 31.5682 40.2361 31.4813C40.2917 31.3945 40.3418 31.2739 40.3418 31.2209C40.3418 31.0472 39.9357 30.7723 39.2181 30.4588C37.8664 29.8559 36.5369 28.8237 35.6413 27.6613C35.0015 26.8268 34.3563 25.5776 34.195 24.8396C33.9224 23.6242 33.8445 22.2929 34.0003 21.3669C34.0392 21.1257 34.1783 20.6192 34.3118 20.2334C34.8847 18.5597 35.2797 17.8893 36.1753 17.0596C36.4479 16.8137 36.6704 16.587 36.6704 16.5677C36.6704 16.4857 38.0332 15.4969 38.367 15.3377C38.5506 15.2461 38.7842 15.1062 38.8843 15.0194C39.1903 14.7589 39.1458 14.6576 38.3781 13.8763C37.349 12.8296 36.0529 11.9711 34.5287 11.3296C33.5775 10.9292 32.9211 10.7315 32.0032 10.5675C31.0631 10.3938 29.6613 10.2925 28.7713 10.336Z" fill="#717171"/>
</svg>
